<mxfile host="app.diagrams.net" agent="Mozilla/5.0 (Windows NT 10.0; Win64; x64; rv:132.0) Gecko/20100101 Firefox/132.0" version="24.8.4">
  <diagram name="Page-1" id="b5b7bab2-c9e2-2cf4-8b2a-24fd1a2a6d21">
    <mxGraphModel dx="1232" dy="1076" grid="1" gridSize="10" guides="1" tooltips="1" connect="1" arrows="1" fold="1" page="1" pageScale="1" pageWidth="583" pageHeight="827" background="none" math="0" shadow="0">
      <root>
        <mxCell id="0" />
        <mxCell id="1" parent="0" />
        <mxCell id="eCR8nNRvOomWGx0gUDTw-1" value="StateMachine" style="shape=umlLifeline;perimeter=lifelinePerimeter;whiteSpace=wrap;html=1;container=1;dropTarget=0;collapsible=0;recursiveResize=0;outlineConnect=0;portConstraint=eastwest;newEdgeStyle={&quot;edgeStyle&quot;:&quot;elbowEdgeStyle&quot;,&quot;elbow&quot;:&quot;vertical&quot;,&quot;curved&quot;:0,&quot;rounded&quot;:0};" vertex="1" parent="1">
          <mxGeometry x="122" y="174" width="100" height="480" as="geometry" />
        </mxCell>
        <mxCell id="eCR8nNRvOomWGx0gUDTw-4" value="" style="html=1;points=[[0,0,0,0,5],[0,1,0,0,-5],[1,0,0,0,5],[1,1,0,0,-5]];perimeter=orthogonalPerimeter;outlineConnect=0;targetShapes=umlLifeline;portConstraint=eastwest;newEdgeStyle={&quot;curved&quot;:0,&quot;rounded&quot;:0};" vertex="1" parent="eCR8nNRvOomWGx0gUDTw-1">
          <mxGeometry x="45" y="120" width="10" height="10" as="geometry" />
        </mxCell>
        <mxCell id="eCR8nNRvOomWGx0gUDTw-9" value="" style="html=1;points=[[0,0,0,0,5],[0,1,0,0,-5],[1,0,0,0,5],[1,1,0,0,-5]];perimeter=orthogonalPerimeter;outlineConnect=0;targetShapes=umlLifeline;portConstraint=eastwest;newEdgeStyle={&quot;curved&quot;:0,&quot;rounded&quot;:0};" vertex="1" parent="eCR8nNRvOomWGx0gUDTw-1">
          <mxGeometry x="45" y="140" width="10" height="330" as="geometry" />
        </mxCell>
        <mxCell id="eCR8nNRvOomWGx0gUDTw-17" value="" style="html=1;points=[[0,0,0,0,5],[0,1,0,0,-5],[1,0,0,0,5],[1,1,0,0,-5]];perimeter=orthogonalPerimeter;outlineConnect=0;targetShapes=umlLifeline;portConstraint=eastwest;newEdgeStyle={&quot;curved&quot;:0,&quot;rounded&quot;:0};" vertex="1" parent="eCR8nNRvOomWGx0gUDTw-1">
          <mxGeometry x="50" y="240" width="10" height="190" as="geometry" />
        </mxCell>
        <mxCell id="eCR8nNRvOomWGx0gUDTw-18" value="TransitionTo(nextState)" style="html=1;align=left;spacingLeft=2;endArrow=block;rounded=0;edgeStyle=orthogonalEdgeStyle;curved=0;rounded=0;" edge="1" target="eCR8nNRvOomWGx0gUDTw-17" parent="eCR8nNRvOomWGx0gUDTw-1">
          <mxGeometry relative="1" as="geometry">
            <mxPoint x="55" y="220" as="sourcePoint" />
            <Array as="points">
              <mxPoint x="85" y="250" />
            </Array>
          </mxGeometry>
        </mxCell>
        <mxCell id="eCR8nNRvOomWGx0gUDTw-2" value="State:IState" style="shape=umlLifeline;perimeter=lifelinePerimeter;whiteSpace=wrap;html=1;container=1;dropTarget=0;collapsible=0;recursiveResize=0;outlineConnect=0;portConstraint=eastwest;newEdgeStyle={&quot;edgeStyle&quot;:&quot;elbowEdgeStyle&quot;,&quot;elbow&quot;:&quot;vertical&quot;,&quot;curved&quot;:0,&quot;rounded&quot;:0};" vertex="1" parent="1">
          <mxGeometry x="362" y="254" width="100" height="240" as="geometry" />
        </mxCell>
        <mxCell id="eCR8nNRvOomWGx0gUDTw-7" value="" style="html=1;points=[[0,0,0,0,5],[0,1,0,0,-5],[1,0,0,0,5],[1,1,0,0,-5]];perimeter=orthogonalPerimeter;outlineConnect=0;targetShapes=umlLifeline;portConstraint=eastwest;newEdgeStyle={&quot;curved&quot;:0,&quot;rounded&quot;:0};" vertex="1" parent="eCR8nNRvOomWGx0gUDTw-2">
          <mxGeometry x="45" y="60" width="10" height="30" as="geometry" />
        </mxCell>
        <mxCell id="eCR8nNRvOomWGx0gUDTw-13" value="" style="html=1;points=[[0,0,0,0,5],[0,1,0,0,-5],[1,0,0,0,5],[1,1,0,0,-5]];perimeter=orthogonalPerimeter;outlineConnect=0;targetShapes=umlLifeline;portConstraint=eastwest;newEdgeStyle={&quot;curved&quot;:0,&quot;rounded&quot;:0};" vertex="1" parent="eCR8nNRvOomWGx0gUDTw-2">
          <mxGeometry x="45" y="100" width="10" height="30" as="geometry" />
        </mxCell>
        <mxCell id="eCR8nNRvOomWGx0gUDTw-21" value="" style="html=1;points=[[0,0,0,0,5],[0,1,0,0,-5],[1,0,0,0,5],[1,1,0,0,-5]];perimeter=orthogonalPerimeter;outlineConnect=0;targetShapes=umlLifeline;portConstraint=eastwest;newEdgeStyle={&quot;curved&quot;:0,&quot;rounded&quot;:0};" vertex="1" parent="eCR8nNRvOomWGx0gUDTw-2">
          <mxGeometry x="45" y="180" width="10" height="30" as="geometry" />
        </mxCell>
        <mxCell id="eCR8nNRvOomWGx0gUDTw-32" value="" style="shape=umlDestroy;whiteSpace=wrap;html=1;strokeWidth=3;targetShapes=umlLifeline;" vertex="1" parent="eCR8nNRvOomWGx0gUDTw-2">
          <mxGeometry x="35" y="210" width="30" height="30" as="geometry" />
        </mxCell>
        <mxCell id="eCR8nNRvOomWGx0gUDTw-3" value="" style="fontSize=12;html=1;endArrow=none;endFill=0;rounded=0;exitX=1;exitY=0;exitDx=0;exitDy=5;exitPerimeter=0;elbow=vertical;" edge="1" parent="1" source="eCR8nNRvOomWGx0gUDTw-4" target="eCR8nNRvOomWGx0gUDTw-2">
          <mxGeometry width="160" relative="1" as="geometry">
            <mxPoint x="202" y="294" as="sourcePoint" />
            <mxPoint x="362" y="299" as="targetPoint" />
          </mxGeometry>
        </mxCell>
        <mxCell id="eCR8nNRvOomWGx0gUDTw-5" value="new()" style="edgeLabel;html=1;align=center;verticalAlign=middle;resizable=0;points=[];" vertex="1" connectable="0" parent="eCR8nNRvOomWGx0gUDTw-3">
          <mxGeometry x="-0.2077" y="-1" relative="1" as="geometry">
            <mxPoint x="22" as="offset" />
          </mxGeometry>
        </mxCell>
        <mxCell id="eCR8nNRvOomWGx0gUDTw-8" value="" style="fontSize=12;html=1;endArrow=blockThin;endFill=1;rounded=0;entryX=0;entryY=0;entryDx=0;entryDy=5;entryPerimeter=0;" edge="1" parent="1" source="eCR8nNRvOomWGx0gUDTw-9" target="eCR8nNRvOomWGx0gUDTw-7">
          <mxGeometry width="160" relative="1" as="geometry">
            <mxPoint x="179" y="339" as="sourcePoint" />
            <mxPoint x="332" y="334" as="targetPoint" />
          </mxGeometry>
        </mxCell>
        <mxCell id="eCR8nNRvOomWGx0gUDTw-10" value="Execute()" style="edgeLabel;html=1;align=center;verticalAlign=middle;resizable=0;points=[];" vertex="1" connectable="0" parent="eCR8nNRvOomWGx0gUDTw-8">
          <mxGeometry x="0.312" y="-1" relative="1" as="geometry">
            <mxPoint x="-47" y="4" as="offset" />
          </mxGeometry>
        </mxCell>
        <mxCell id="eCR8nNRvOomWGx0gUDTw-11" value="" style="edgeStyle=elbowEdgeStyle;fontSize=12;html=1;endArrow=open;endFill=0;rounded=0;exitX=0;exitY=1;exitDx=0;exitDy=-5;exitPerimeter=0;elbow=vertical;dashed=1;" edge="1" parent="1" source="eCR8nNRvOomWGx0gUDTw-7" target="eCR8nNRvOomWGx0gUDTw-9">
          <mxGeometry width="160" relative="1" as="geometry">
            <mxPoint x="189" y="349" as="sourcePoint" />
            <mxPoint x="179" y="359" as="targetPoint" />
          </mxGeometry>
        </mxCell>
        <mxCell id="eCR8nNRvOomWGx0gUDTw-14" value="" style="fontSize=12;html=1;endArrow=blockThin;endFill=1;rounded=0;entryX=0;entryY=0;entryDx=0;entryDy=5;entryPerimeter=0;" edge="1" parent="1" source="eCR8nNRvOomWGx0gUDTw-9" target="eCR8nNRvOomWGx0gUDTw-13">
          <mxGeometry width="160" relative="1" as="geometry">
            <mxPoint x="178" y="380" as="sourcePoint" />
            <mxPoint x="417" y="349" as="targetPoint" />
          </mxGeometry>
        </mxCell>
        <mxCell id="eCR8nNRvOomWGx0gUDTw-15" value="GetNextState()" style="edgeLabel;html=1;align=center;verticalAlign=middle;resizable=0;points=[];" vertex="1" connectable="0" parent="eCR8nNRvOomWGx0gUDTw-14">
          <mxGeometry x="0.312" y="-1" relative="1" as="geometry">
            <mxPoint x="-36" y="-6" as="offset" />
          </mxGeometry>
        </mxCell>
        <mxCell id="eCR8nNRvOomWGx0gUDTw-16" value="" style="html=1;verticalAlign=bottom;endArrow=open;dashed=1;endSize=8;curved=0;rounded=0;exitX=0;exitY=1;exitDx=0;exitDy=-5;exitPerimeter=0;" edge="1" parent="1" source="eCR8nNRvOomWGx0gUDTw-13" target="eCR8nNRvOomWGx0gUDTw-9">
          <mxGeometry relative="1" as="geometry">
            <mxPoint x="302" y="444" as="sourcePoint" />
            <mxPoint x="180" y="398" as="targetPoint" />
          </mxGeometry>
        </mxCell>
        <mxCell id="eCR8nNRvOomWGx0gUDTw-19" value="nextState" style="edgeLabel;html=1;align=center;verticalAlign=middle;resizable=0;points=[];" vertex="1" connectable="0" parent="eCR8nNRvOomWGx0gUDTw-16">
          <mxGeometry x="-0.1429" y="2" relative="1" as="geometry">
            <mxPoint x="-18" as="offset" />
          </mxGeometry>
        </mxCell>
        <mxCell id="eCR8nNRvOomWGx0gUDTw-20" value="" style="fontSize=12;html=1;endArrow=blockThin;endFill=1;rounded=0;entryX=0;entryY=0;entryDx=0;entryDy=5;entryPerimeter=0;" edge="1" parent="1" source="eCR8nNRvOomWGx0gUDTw-17" target="eCR8nNRvOomWGx0gUDTw-21">
          <mxGeometry width="160" relative="1" as="geometry">
            <mxPoint x="182" y="458" as="sourcePoint" />
            <mxPoint x="382" y="474" as="targetPoint" />
          </mxGeometry>
        </mxCell>
        <mxCell id="eCR8nNRvOomWGx0gUDTw-22" value="Exit()" style="edgeLabel;html=1;align=center;verticalAlign=middle;resizable=0;points=[];" vertex="1" connectable="0" parent="eCR8nNRvOomWGx0gUDTw-20">
          <mxGeometry x="0.7464" y="2" relative="1" as="geometry">
            <mxPoint x="-87" as="offset" />
          </mxGeometry>
        </mxCell>
        <mxCell id="eCR8nNRvOomWGx0gUDTw-23" value="" style="html=1;verticalAlign=bottom;endArrow=open;dashed=1;endSize=8;curved=0;rounded=0;exitX=0;exitY=1;exitDx=0;exitDy=-5;exitPerimeter=0;" edge="1" parent="1" source="eCR8nNRvOomWGx0gUDTw-21" target="eCR8nNRvOomWGx0gUDTw-17">
          <mxGeometry relative="1" as="geometry">
            <mxPoint x="332" y="484" as="sourcePoint" />
            <mxPoint x="182" y="475" as="targetPoint" />
          </mxGeometry>
        </mxCell>
        <mxCell id="eCR8nNRvOomWGx0gUDTw-25" value="nextState:IState" style="shape=umlLifeline;perimeter=lifelinePerimeter;whiteSpace=wrap;html=1;container=1;dropTarget=0;collapsible=0;recursiveResize=0;outlineConnect=0;portConstraint=eastwest;newEdgeStyle={&quot;edgeStyle&quot;:&quot;elbowEdgeStyle&quot;,&quot;elbow&quot;:&quot;vertical&quot;,&quot;curved&quot;:0,&quot;rounded&quot;:0};" vertex="1" parent="1">
          <mxGeometry x="362" y="504" width="100" height="150" as="geometry" />
        </mxCell>
        <mxCell id="eCR8nNRvOomWGx0gUDTw-26" value="" style="html=1;points=[[0,0,0,0,5],[0,1,0,0,-5],[1,0,0,0,5],[1,1,0,0,-5]];perimeter=orthogonalPerimeter;outlineConnect=0;targetShapes=umlLifeline;portConstraint=eastwest;newEdgeStyle={&quot;curved&quot;:0,&quot;rounded&quot;:0};" vertex="1" parent="eCR8nNRvOomWGx0gUDTw-25">
          <mxGeometry x="45" y="60" width="10" height="30" as="geometry" />
        </mxCell>
        <mxCell id="eCR8nNRvOomWGx0gUDTw-29" value="" style="fontSize=12;html=1;endArrow=none;endFill=0;rounded=0;elbow=vertical;" edge="1" parent="1" source="eCR8nNRvOomWGx0gUDTw-17" target="eCR8nNRvOomWGx0gUDTw-25">
          <mxGeometry width="160" relative="1" as="geometry">
            <mxPoint x="187" y="309" as="sourcePoint" />
            <mxPoint x="372" y="309" as="targetPoint" />
          </mxGeometry>
        </mxCell>
        <mxCell id="eCR8nNRvOomWGx0gUDTw-30" value="new()" style="edgeLabel;html=1;align=center;verticalAlign=middle;resizable=0;points=[];" vertex="1" connectable="0" parent="eCR8nNRvOomWGx0gUDTw-29">
          <mxGeometry x="-0.2077" y="-1" relative="1" as="geometry">
            <mxPoint x="22" as="offset" />
          </mxGeometry>
        </mxCell>
        <mxCell id="eCR8nNRvOomWGx0gUDTw-33" value="" style="fontSize=12;html=1;endArrow=blockThin;endFill=1;rounded=0;entryX=0;entryY=0;entryDx=0;entryDy=5;entryPerimeter=0;" edge="1" parent="1" source="eCR8nNRvOomWGx0gUDTw-17" target="eCR8nNRvOomWGx0gUDTw-26">
          <mxGeometry width="160" relative="1" as="geometry">
            <mxPoint x="122" y="634" as="sourcePoint" />
            <mxPoint x="352" y="634" as="targetPoint" />
          </mxGeometry>
        </mxCell>
        <mxCell id="eCR8nNRvOomWGx0gUDTw-34" value="Enter()" style="edgeLabel;html=1;align=center;verticalAlign=middle;resizable=0;points=[];" vertex="1" connectable="0" parent="eCR8nNRvOomWGx0gUDTw-33">
          <mxGeometry x="0.312" y="-1" relative="1" as="geometry">
            <mxPoint x="-37" y="4" as="offset" />
          </mxGeometry>
        </mxCell>
        <mxCell id="eCR8nNRvOomWGx0gUDTw-35" value="" style="fontSize=12;html=1;endArrow=open;endFill=0;rounded=0;exitX=0;exitY=1;exitDx=0;exitDy=-5;exitPerimeter=0;elbow=vertical;dashed=1;" edge="1" parent="1" source="eCR8nNRvOomWGx0gUDTw-26" target="eCR8nNRvOomWGx0gUDTw-17">
          <mxGeometry width="160" relative="1" as="geometry">
            <mxPoint x="417" y="349" as="sourcePoint" />
            <mxPoint x="187" y="349" as="targetPoint" />
          </mxGeometry>
        </mxCell>
        <mxCell id="eCR8nNRvOomWGx0gUDTw-36" value="Update" style="shape=umlFrame;whiteSpace=wrap;html=1;pointerEvents=0;" vertex="1" parent="1">
          <mxGeometry x="92" y="244" width="400" height="370" as="geometry" />
        </mxCell>
      </root>
    </mxGraphModel>
  </diagram>
</mxfile>
